<?xml version="1.0" encoding="UTF-8" standalone="no"?>
<!-- Created with Inkscape (http://www.inkscape.org/) -->

<svg
   xmlns:dc="http://purl.org/dc/elements/1.1/"
   xmlns:cc="http://creativecommons.org/ns#"
   xmlns:rdf="http://www.w3.org/1999/02/22-rdf-syntax-ns#"
   xmlns:svg="http://www.w3.org/2000/svg"
   xmlns="http://www.w3.org/2000/svg"
   xmlns:sodipodi="http://sodipodi.sourceforge.net/DTD/sodipodi-0.dtd"
   xmlns:inkscape="http://www.inkscape.org/namespaces/inkscape"
   width="64"
   height="64"
   viewBox="0 0 16.933333 16.933334"
   version="1.1"
   id="svg8"
   sodipodi:docname="move.svg"
   inkscape:version="0.92.5 (2060ec1f9f, 2020-04-08)">
  <defs
     id="defs2" />
  <sodipodi:namedview
     id="base"
     pagecolor="#ffffff"
     bordercolor="#666666"
     borderopacity="1.0"
     inkscape:pageopacity="0.0"
     inkscape:pageshadow="2"
     inkscape:zoom="7.9195959"
     inkscape:cx="-4.9525672"
     inkscape:cy="32.76988"
     inkscape:document-units="mm"
     inkscape:current-layer="layer1"
     showgrid="false"
     units="px"
     inkscape:window-width="1848"
     inkscape:window-height="1016"
     inkscape:window-x="72"
     inkscape:window-y="27"
     inkscape:window-maximized="1" />
  <metadata
     id="metadata5">
    <rdf:RDF>
      <cc:Work
         rdf:about="">
        <dc:format>image/svg+xml</dc:format>
        <dc:type
           rdf:resource="http://purl.org/dc/dcmitype/StillImage" />
        <dc:title />
      </cc:Work>
    </rdf:RDF>
  </metadata>
  <g
     inkscape:label="Livello 1"
     inkscape:groupmode="layer"
     id="layer1"
     transform="translate(0,-280.06665)">
    <g
       id="g875"
       style="fill:#ffffff;fill-opacity:1;stroke:#ffffff;stroke-width:0;stroke-linecap:round;stroke-miterlimit:4;stroke-dasharray:none;stroke-opacity:1"
       transform="matrix(0.75755203,0,0,0.75755203,1.6518548,70.355188)">
      <path
         d="m 5.164555,293.28928 a 1.460403,1.4604027 0 0 1 -1.4530795,1.46691 1.460403,1.4604027 0 0 1 -1.4676894,-1.45229 1.460403,1.4604027 0 0 1 1.4515041,-1.46847 1.460403,1.4604027 0 0 1 1.4692475,1.45072"
         sodipodi:open="true"
         sodipodi:end="6.2765705"
         sodipodi:start="6.2787173"
         sodipodi:ry="1.4604027"
         sodipodi:rx="1.460403"
         sodipodi:cy="293.29581"
         sodipodi:cx="3.7041667"
         sodipodi:type="arc"
         id="path848"
         style="opacity:1;fill:#ffffff;fill-opacity:1;stroke:#ffffff;stroke-width:0;stroke-linecap:round;stroke-linejoin:round;stroke-miterlimit:4;stroke-dasharray:none;stroke-opacity:1;paint-order:stroke markers fill" />
      <path
         style="opacity:1;fill:#ffffff;fill-opacity:1;stroke:#ffffff;stroke-width:0;stroke-linecap:round;stroke-linejoin:round;stroke-miterlimit:4;stroke-dasharray:none;stroke-opacity:1;paint-order:stroke markers fill"
         id="path850"
         sodipodi:type="arc"
         sodipodi:cx="8.9958334"
         sodipodi:cy="293.29581"
         sodipodi:rx="1.460403"
         sodipodi:ry="1.4604027"
         sodipodi:start="6.2787173"
         sodipodi:end="6.2765705"
         sodipodi:open="true"
         d="m 10.456222,293.28928 a 1.460403,1.4604027 0 0 1 -1.4530797,1.46691 1.460403,1.4604027 0 0 1 -1.4676894,-1.45229 1.460403,1.4604027 0 0 1 1.4515041,-1.46847 1.460403,1.4604027 0 0 1 1.469247,1.45072" />
      <path
         d="m 15.747889,293.28928 a 1.460403,1.4604027 0 0 1 -1.45308,1.46691 1.460403,1.4604027 0 0 1 -1.467689,-1.45229 1.460403,1.4604027 0 0 1 1.451504,-1.46847 1.460403,1.4604027 0 0 1 1.469247,1.45072"
         sodipodi:open="true"
         sodipodi:end="6.2765705"
         sodipodi:start="6.2787173"
         sodipodi:ry="1.4604027"
         sodipodi:rx="1.460403"
         sodipodi:cy="293.29581"
         sodipodi:cx="14.2875"
         sodipodi:type="arc"
         id="path852"
         style="opacity:1;fill:#ffffff;fill-opacity:1;stroke:#ffffff;stroke-width:0;stroke-linecap:round;stroke-linejoin:round;stroke-miterlimit:4;stroke-dasharray:none;stroke-opacity:1;paint-order:stroke markers fill" />
      <path
         style="opacity:1;fill:#ffffff;fill-opacity:1;stroke:#ffffff;stroke-width:0;stroke-linecap:round;stroke-linejoin:round;stroke-miterlimit:4;stroke-dasharray:none;stroke-opacity:1;paint-order:stroke markers fill"
         id="path854"
         sodipodi:type="arc"
         sodipodi:cx="3.7041667"
         sodipodi:cy="288.00415"
         sodipodi:rx="1.460403"
         sodipodi:ry="1.4604027"
         sodipodi:start="6.2787173"
         sodipodi:end="6.2765705"
         sodipodi:open="true"
         d="m 5.164555,287.99763 a 1.460403,1.4604027 0 0 1 -1.4530795,1.4669 1.460403,1.4604027 0 0 1 -1.4676894,-1.45229 1.460403,1.4604027 0 0 1 1.4515041,-1.46847 1.460403,1.4604027 0 0 1 1.4692475,1.45072" />
      <path
         d="m 10.456222,287.99763 a 1.460403,1.4604027 0 0 1 -1.4530797,1.4669 1.460403,1.4604027 0 0 1 -1.4676894,-1.45229 1.460403,1.4604027 0 0 1 1.4515041,-1.46847 1.460403,1.4604027 0 0 1 1.469247,1.45072"
         sodipodi:open="true"
         sodipodi:end="6.2765705"
         sodipodi:start="6.2787173"
         sodipodi:ry="1.4604027"
         sodipodi:rx="1.460403"
         sodipodi:cy="288.00415"
         sodipodi:cx="8.9958334"
         sodipodi:type="arc"
         id="path856"
         style="opacity:1;fill:#ffffff;fill-opacity:1;stroke:#ffffff;stroke-width:0;stroke-linecap:round;stroke-linejoin:round;stroke-miterlimit:4;stroke-dasharray:none;stroke-opacity:1;paint-order:stroke markers fill" />
      <path
         style="opacity:1;fill:#ffffff;fill-opacity:1;stroke:#ffffff;stroke-width:0;stroke-linecap:round;stroke-linejoin:round;stroke-miterlimit:4;stroke-dasharray:none;stroke-opacity:1;paint-order:stroke markers fill"
         id="path858"
         sodipodi:type="arc"
         sodipodi:cx="14.2875"
         sodipodi:cy="288.00415"
         sodipodi:rx="1.460403"
         sodipodi:ry="1.4604027"
         sodipodi:start="6.2787173"
         sodipodi:end="6.2765705"
         sodipodi:open="true"
         d="m 15.747889,287.99763 a 1.460403,1.4604027 0 0 1 -1.45308,1.4669 1.460403,1.4604027 0 0 1 -1.467689,-1.45229 1.460403,1.4604027 0 0 1 1.451504,-1.46847 1.460403,1.4604027 0 0 1 1.469247,1.45072" />
      <path
         d="m 5.164555,282.70597 a 1.460403,1.4604027 0 0 1 -1.4530795,1.46691 1.460403,1.4604027 0 0 1 -1.4676894,-1.45229 1.460403,1.4604027 0 0 1 1.4515041,-1.46847 1.460403,1.4604027 0 0 1 1.4692475,1.45071"
         sodipodi:open="true"
         sodipodi:end="6.2765705"
         sodipodi:start="6.2787173"
         sodipodi:ry="1.4604027"
         sodipodi:rx="1.460403"
         sodipodi:cy="282.71249"
         sodipodi:cx="3.7041667"
         sodipodi:type="arc"
         id="path860"
         style="opacity:1;fill:#ffffff;fill-opacity:1;stroke:#ffffff;stroke-width:0;stroke-linecap:round;stroke-linejoin:round;stroke-miterlimit:4;stroke-dasharray:none;stroke-opacity:1;paint-order:stroke markers fill" />
      <path
         style="opacity:1;fill:#ffffff;fill-opacity:1;stroke:#ffffff;stroke-width:0;stroke-linecap:round;stroke-linejoin:round;stroke-miterlimit:4;stroke-dasharray:none;stroke-opacity:1;paint-order:stroke markers fill"
         id="path862"
         sodipodi:type="arc"
         sodipodi:cx="8.9958334"
         sodipodi:cy="282.71249"
         sodipodi:rx="1.460403"
         sodipodi:ry="1.4604027"
         sodipodi:start="6.2787173"
         sodipodi:end="6.2765705"
         sodipodi:open="true"
         d="m 10.456222,282.70597 a 1.460403,1.4604027 0 0 1 -1.4530797,1.46691 1.460403,1.4604027 0 0 1 -1.4676894,-1.45229 1.460403,1.4604027 0 0 1 1.4515041,-1.46847 1.460403,1.4604027 0 0 1 1.469247,1.45071" />
      <path
         d="m 15.747889,282.70597 a 1.460403,1.4604027 0 0 1 -1.45308,1.46691 1.460403,1.4604027 0 0 1 -1.467689,-1.45229 1.460403,1.4604027 0 0 1 1.451504,-1.46847 1.460403,1.4604027 0 0 1 1.469247,1.45071"
         sodipodi:open="true"
         sodipodi:end="6.2765705"
         sodipodi:start="6.2787173"
         sodipodi:ry="1.4604027"
         sodipodi:rx="1.460403"
         sodipodi:cy="282.71249"
         sodipodi:cx="14.2875"
         sodipodi:type="arc"
         id="path864"
         style="opacity:1;fill:#ffffff;fill-opacity:1;stroke:#ffffff;stroke-width:0;stroke-linecap:round;stroke-linejoin:round;stroke-miterlimit:4;stroke-dasharray:none;stroke-opacity:1;paint-order:stroke markers fill" />
    </g>
  </g>
</svg>
