<?xml version="1.0" encoding="UTF-8" standalone="no"?>
<svg xmlns="http://www.w3.org/2000/svg" version="1.1" width="512" height="512" viewBox="0 0 512 512">
  <path
     style="fill:#000000;stroke-width:2.62451792"
     d="m 330.01871,507.96531 c 31.77649,-2.17049 65.41143,-9.25681 65.41143,-13.78108 0,-7.54123 -48.7854,-18.89012 -94.02893,-21.87383 l -27.25477,-1.79739 -0.78747,-22.11386 -0.7875,-22.11387 h 94.22261 c 103.761,0 109.13785,-0.68177 117.03301,-14.83919 3.76415,-6.74979 4.26924,-30.11052 4.26924,-197.45397 0,-206.3718984 0.49903,-199.551754 -15.17019,-207.3279252 -11.19182,-5.5541444 -413.622323,-5.5541444 -424.814137,0 -15.669224,7.7761712 -15.17019,0.9560268 -15.17019,207.3279252 0,167.34345 0.505086,190.70418 4.269241,197.45397 7.895159,14.15742 13.272004,14.83919 117.033006,14.83919 h 94.22259 l -0.78749,22.11387 -0.78748,22.11386 -27.25475,1.71041 c -44.55772,2.79625 -94.02893,14.41642 -94.02893,22.08619 0,4.23621 26.5073,10.02077 58.59774,12.7875 27.39708,2.36209 116.20108,2.89085 145.81297,0.8682 z m 81.76428,-122.11682 v -12.6365 h 13.62739 13.62738 v 10.95163 c 0,6.02341 -0.81765,11.70983 -1.817,12.63649 -0.99932,0.92669 -7.13164,1.68488 -13.62738,1.68488 h -11.81039 z m -66.77416,0 v -11.37285 l 14.30875,-0.7639 14.30875,-0.7639 v 11.0837 c 0,6.09605 -0.8742,11.89433 -1.94264,12.88508 -1.06844,0.99078 -7.50738,1.46465 -14.30875,1.05305 l -12.36611,-0.74833 z m -64.04869,0 v -12.6365 h 13.62738 13.62738 v 10.95163 c 0,6.02341 -0.81764,11.70983 -1.81699,12.63649 -0.99932,0.92669 -7.13165,1.68488 -13.62738,1.68488 h -11.81039 z m -67.60486,-0.63182 -0.8307,-12.00468 h 13.7767 13.77671 v 12.77497 12.77497 l -12.94601,-0.7703 -12.946,-0.77029 z m -65.41143,0 -0.8307,-12.00468 h 13.77671 13.77671 v 12.77497 12.77497 l -12.94601,-0.7703 -12.94601,-0.77029 z m -65.411427,0 -0.830698,-12.00468 h 13.776705 13.77671 v 12.77497 12.77497 l -12.94601,-0.7703 -12.946009,-0.77029 z M 370.90085,328.03652 c 0,-24.85581 2.22039,-33.1708 8.8578,-33.1708 4.65149,0 5.20111,-1.15834 3.74753,-7.89781 -0.93688,-4.3438 -1.70342,-15.64697 -1.70342,-25.11817 v -17.22033 l -12.25922,-1.70471 c -10.79073,-1.50051 -12.88507,-0.98927 -17.48407,4.26792 l -5.22484,5.97264 -6.53951,-5.68642 c -3.59673,-3.12753 -9.94505,-5.68643 -14.10737,-5.68643 -4.16229,0 -18.80082,-5.39166 -32.53003,-11.98149 -13.72923,-6.58981 -25.82051,-11.72662 -26.86952,-11.41513 -1.049,0.31149 -13.69129,-5.74253 -28.09393,-13.45334 -14.40264,-7.71084 -27.41643,-13.63956 -28.91956,-13.17497 -1.5031,0.46462 10.22206,7.64546 26.05593,15.95747 17.25534,9.0582 28.28444,16.35484 27.52981,18.21316 -0.76689,1.88855 9.35149,8.15441 25.88592,16.03 l 27.14496,12.92956 v 10.7389 c 0,5.90637 0.80571,26.31719 1.79047,45.35736 l 1.79045,34.61849 -121.03003,-0.73218 C 91.41987,344.22976 77.199892,343.6803 71.530057,339.95691 55.730172,329.58113 56.17606,332.91878 55.314973,218.58231 54.434563,101.68039 54.673669,99.797523 71.615828,90.219236 80.423994,85.239521 84.903832,85.118514 260.79739,85.109289 l 180.15973,-0.01011 9.26087,5.773944 c 5.29137,3.299086 10.65516,9.527867 12.51386,14.531967 3.50417,9.43421 5.11858,199.29612 1.82448,214.56892 -2.01625,9.34825 -14.65823,22.07558 -23.49758,23.65623 -3.36007,0.60084 -20.52016,1.24732 -38.13355,1.43661 l -32.02435,0.34417 z m -62.68595,-35.6981 c 0,-4.94411 -1.81699,-5.0546 -83.12703,-5.0546 h -83.12701 v -61.91885 -61.91883 h 104.93082 c 100.94783,0 104.93084,0.1807 104.93084,4.75981 0,2.63438 2.43407,5.35009 5.45095,6.08165 4.76397,1.15522 5.45095,0.0776 5.45095,-8.55077 v -9.87259 h -114.47 -114.46999 v 70.76438 70.7644 h 87.21524 c 85.39824,0 87.21523,-0.10539 87.21523,-5.0546 z m -114.47,-18.95474 c 0,-6.17784 -0.45425,-6.31825 -20.44107,-6.31825 -19.98681,0 -20.44107,0.14051 -20.44107,6.31825 0,6.17783 0.45426,6.31824 20.44107,6.31824 19.98682,0 20.44107,-0.14051 20.44107,-6.31824 z M 365.14811,227.7399 c 23.30634,-18.18501 4.40393,-53.25085 -25.86654,-47.985 -21.97729,3.82317 -30.97062,32.18781 -14.92345,47.06812 10.79833,10.01316 28.61861,10.41374 40.78999,0.91688 z m -24.22749,103.77166 c 0,-10.67082 0.94977,-13.90015 4.08821,-13.90015 3.13841,0 4.08821,3.22933 4.08821,13.90015 0,10.67081 -0.9498,13.90014 -4.08821,13.90014 -3.13844,0 -4.08821,-3.22933 -4.08821,-13.90014 z M 411.78299,44.663075 V 32.026579 h 13.62739 13.62738 V 42.9782 c 0,6.023389 -0.81765,11.709812 -1.817,12.636497 -0.99932,0.926684 -7.13164,1.684874 -13.62738,1.684874 h -11.81039 z m -66.77416,0 V 33.290229 h 13.62738 c 13.46298,0 13.63793,0.102102 14.50079,8.454296 1.43567,13.896961 -0.60735,15.927621 -15.15436,15.062728 l -12.97381,-0.771331 z m -64.04869,0 V 32.026579 h 13.62738 13.62738 V 42.9782 c 0,6.023389 -0.81764,11.709812 -1.81699,12.636497 -0.99932,0.926684 -7.13165,1.684874 -13.62738,1.684874 h -11.81039 z m -66.77416,0 V 33.290229 l 12.946,-0.770321 12.94601,-0.770296 v 12.913463 12.913438 l -12.94601,-0.770296 -12.946,-0.770295 z m -66.24213,-0.631825 -0.8307,-12.004671 h 13.77671 13.77671 v 12.774967 12.774967 l -12.94601,-0.770296 -12.94601,-0.770295 z m -65.411427,0 -0.830698,-12.004671 H 95.47843 109.25514 V 44.801546 57.576513 L 96.30913,56.806217 83.363121,56.035922 Z"
     id="path12" />
</svg>
