<svg id="Capa_1" enable-background="new 0 0 512 512" height="512" viewBox="0 0 512 512" width="512" xmlns="http://www.w3.org/2000/svg"><g><g fill="#407194"><path d="m463.775 422.286h-297.398c-4.273 0-7.736-3.464-7.736-7.736s3.464-7.736 7.736-7.736h297.397c4.273 0 7.736 3.464 7.736 7.736s-3.462 7.736-7.735 7.736z"/><path d="m463.775 469.712c-4.273 0-7.736-3.464-7.736-7.736v-101.934c0-4.273 3.463-7.736 7.736-7.736s7.736 3.464 7.736 7.736v101.934c0 4.272-3.463 7.736-7.736 7.736z"/><path d="m166.377 469.712c-4.273 0-7.736-3.464-7.736-7.736v-101.934c0-4.273 3.464-7.736 7.736-7.736 4.273 0 7.736 3.464 7.736 7.736v101.934c0 4.272-3.463 7.736-7.736 7.736z"/></g><path d="m118.152 360.041v-307.438c0-5.697 4.618-10.315 10.315-10.315h373.218c5.697 0 10.315 4.618 10.315 10.315v307.438c0 5.697-4.618 10.315-10.315 10.315h-373.218c-5.697 0-10.315-4.618-10.315-10.315z" fill="#ddebfd"/><path d="m501.685 346.832h-373.218c-5.697 0-10.315-4.618-10.315-10.315v23.525c0 5.697 4.618 10.315 10.315 10.315h373.218c5.697 0 10.315-4.618 10.315-10.315v-23.525c0 5.697-4.618 10.315-10.315 10.315z" fill="#bed9fd"/><g><path d="m83.2 276.321-79.79 14.069c-2.244.396-3.743 2.536-3.347 4.78l16.246 92.137c.396 2.244 2.536 3.743 4.78 3.347l79.79-14.069c2.982-.526 4.973-3.369 4.447-6.351l-15.775-89.466c-.526-2.982-3.369-4.973-6.351-4.447z" fill="#df646e"/><path d="m105.326 370.234-3.984-22.592c.438 2.484-1.624 4.924-4.606 5.45l-83.853 14.786-2.647-15.013 6.073 34.442c.396 2.244 2.536 3.743 4.78 3.347l79.79-14.069c2.982-.526 4.973-3.37 4.447-6.351z" fill="#dc4955"/><path d="m262.932 237.182c-4.935-8.548-15.865-11.476-24.413-6.541l-5.153 2.975-17.72-18.628c-8.212-8.633-21.848-9.033-30.552-.897l-70.467 65.872-24.456 4.312 12.413 70.399 72.222-12.735c3.464-.611 6.591-1.992 9.277-3.905 10.094 6.207 22.775 6.664 33.328 1.061l25.643-13.617c10.359-5.5 15.996-17.047 13.959-28.597l-5.705-32.353 5.082-2.934c8.548-4.934 11.477-15.864 6.542-24.412z" fill="#ffcdbe"/><path d="m117.119 277.633-2.493 2.33-24.456 4.312 12.413 70.399 27.272-4.808z" fill="#ebae9d"/><path d="m251.309 264.529 5.705 32.353c2.036 11.547-3.596 23.091-13.959 28.597l-25.643 13.617c-10.546 5.6-23.223 5.153-33.314-1.046 6.968-4.957 10.859-13.635 9.274-22.626l-2.792-15.834z" fill="#ebae9d"/><path d="m293.967 94.061-57.681 158.486-45.815 23.104 70.467-193.613c2.602-7.133 9.343-11.574 16.532-11.574 1.985 0 4.015.348 6 1.065 9.118 3.32 13.817 13.414 10.497 22.532z" fill="#c77e67"/><path d="m262.932 237.182c-4.935-8.548-15.865-11.476-24.413-6.541l-54.528 31.482-57.837 88.396 48.651-8.578c12.45-2.195 20.761-14.067 18.566-26.517l-2.792-15.834 65.812-37.994c8.547-4.936 11.476-15.866 6.541-24.414z" fill="#ffcdbe"/></g></g></svg>